<?xml version="1.0" encoding="UTF-8" standalone="no"?>
<svg
   xmlns:dc="http://purl.org/dc/elements/1.1/"
   xmlns:cc="http://creativecommons.org/ns#"
   xmlns:rdf="http://www.w3.org/1999/02/22-rdf-syntax-ns#"
   xmlns:svg="http://www.w3.org/2000/svg"
   xmlns="http://www.w3.org/2000/svg"
   xmlns:sodipodi="http://sodipodi.sourceforge.net/DTD/sodipodi-0.dtd"
   xmlns:inkscape="http://www.inkscape.org/namespaces/inkscape"
   width="140mm"
   height="140mm"
   viewBox="0 0 140 140"
   version="1.1"
   id="svg2112"
   inkscape:version="1.0.1 (3bc2e813f5, 2020-09-07)"
   sodipodi:docname="icon.svg"
   inkscape:export-filename="/home/ccc/Documents/prog/thunderbird_date/icon.png"
   inkscape:export-xdpi="180"
   inkscape:export-ydpi="180">
  <defs
     id="defs2106">
    <inkscape:path-effect
       effect="powerclip"
       id="path-effect2896"
       is_visible="true"
       lpeversion="1"
       inverse="true"
       flatten="false"
       hide_clip="false"
       message="Use fill-rule evenodd on &lt;b&gt;fill and stroke&lt;/b&gt; dialog if no flatten result after convert clip to paths." />
    <mask
       maskUnits="userSpaceOnUse"
       id="mask2785">
      <rect
         style="opacity:1;fill:#ffffff;fill-opacity:1;stroke:#a8a8a8;stroke-width:0.529167;paint-order:stroke markers fill"
         id="rect2787"
         width="77.128258"
         height="80.76693"
         x="127.53263"
         y="-11.840682" />
    </mask>
    <clipPath
       clipPathUnits="userSpaceOnUse"
       id="clipPath2892">
      <rect
         style="display:none;opacity:1;fill:#ffffff;fill-opacity:1;stroke:none;stroke-width:1.6395;stroke-miterlimit:4;stroke-dasharray:none;stroke-opacity:1;paint-order:stroke markers fill"
         id="rect2894"
         width="48.987431"
         height="40.685017"
         x="74.774414"
         y="57.191765"
         d="M 74.774414,57.191765 H 123.76184 V 97.876781 H 74.774414 Z" />
      <path
         id="lpe_path-effect2896"
         style="opacity:1;fill:#ffffff;fill-opacity:1;stroke:none;stroke-width:1.6395;stroke-miterlimit:4;stroke-dasharray:none;stroke-opacity:1;paint-order:stroke markers fill"
         class="powerclip"
         d="M -15.496816,63.680497 H 112.57685 V 169.2673 H -15.496816 Z m 90.27123,-6.488732 V 97.876781 H 123.76184 V 57.191765 Z" />
    </clipPath>
  </defs>
  <sodipodi:namedview
     id="base"
     pagecolor="#ffffff"
     bordercolor="#666666"
     borderopacity="1.0"
     inkscape:pageopacity="0.0"
     inkscape:pageshadow="2"
     inkscape:zoom="0.79759323"
     inkscape:cx="-55.474421"
     inkscape:cy="193.59506"
     inkscape:document-units="mm"
     inkscape:current-layer="layer1"
     inkscape:document-rotation="0"
     showgrid="false"
     fit-margin-top="0"
     fit-margin-left="0"
     fit-margin-right="0"
     fit-margin-bottom="0"
     inkscape:window-width="1918"
     inkscape:window-height="1037"
     inkscape:window-x="0"
     inkscape:window-y="42"
     inkscape:window-maximized="1" />
  <metadata
     id="metadata2109">
    <rdf:RDF>
      <cc:Work
         rdf:about="">
        <dc:format>image/svg+xml</dc:format>
        <dc:type
           rdf:resource="http://purl.org/dc/dcmitype/StillImage" />
        <dc:title></dc:title>
      </cc:Work>
    </rdf:RDF>
  </metadata>
  <g
     inkscape:label="Layer 1"
     inkscape:groupmode="layer"
     id="layer1"
     transform="translate(10.791816,-30.743681)">
    <rect
       style="opacity:1;fill:#ffffff;fill-opacity:1;stroke:none;stroke-width:2.10931;stroke-miterlimit:4;stroke-dasharray:none;stroke-opacity:1;paint-order:stroke markers fill"
       id="rect2900"
       width="140"
       height="140"
       x="-10.791816"
       y="30.743681"
       ry="20.317442" />
    <path
       style="fill:#d85353;fill-opacity:1;stroke:#d85353;stroke-width:8.935;stroke-miterlimit:4;stroke-dasharray:none;stroke-opacity:1"
       d="m 1.4150598,158.73842 c -3.1672937,-0.68025 -6.1055078,-3.46488 -7.1263915,-6.75388 l -0.3179837,-1.02446 V 116.0603 81.16052 l 0.3179837,-1.024455 c 1.0315748,-3.323446 3.972515,-6.087311 7.1946886,-6.761493 1.4438474,-0.3021 92.6694561,-0.3021 94.1133031,0 3.222173,0.674182 6.16312,3.438047 7.1947,6.761493 l 0.31799,1.024455 v 34.89978 34.89978 l -0.31799,1.02446 c -1.03158,3.32344 -3.972527,6.08731 -7.1947,6.76149 -1.403877,0.29374 -92.8129095,0.28635 -94.1816002,-0.008 z M 94.44956,150.85491 c 0.255271,-0.17053 0.571602,-0.52397 0.702958,-0.78541 0.224616,-0.44708 0.238839,-1.88035 0.239039,-24.08861 l 2.12e-4,-23.61325 -0.885662,0.95659 c -1.271051,1.37286 -3.048935,2.8745 -7.241684,6.11649 -8.567384,6.62461 -14.427286,11.29043 -21.498465,17.11768 -6.210302,5.11781 -7.056876,5.7041 -10.62282,7.35688 -2.243427,1.0398 -4.750812,1.67636 -6.603128,1.67636 -1.852316,0 -4.359701,-0.63656 -6.603128,-1.67636 -3.565944,-1.65278 -4.412518,-2.23907 -10.62282,-7.35688 -7.071179,-5.82725 -12.931081,-10.49307 -21.4984687,-17.11768 -4.1927487,-3.24199 -5.9706316,-4.74363 -7.2416832,-6.11649 l -0.8856622,-0.95659 2.186e-4,23.61325 c 2.049e-4,22.20826 0.014423,23.64153 0.2390396,24.08861 0.1313551,0.26144 0.447686,0.61488 0.702958,0.78541 l 0.4641242,0.31006 H 48.54001 93.985428 Z M 51.01367,127.26366 c 2.252311,-0.82199 4.8828,-2.62364 9.478319,-6.49179 0.901521,-0.75883 7.201922,-5.76836 14.000891,-11.1323 13.230525,-10.437997 14.411713,-11.456623 16.422919,-14.162712 2.064484,-2.777775 3.323357,-5.084767 4.011158,-7.350793 0.341361,-1.124644 0.373912,-1.42835 0.384715,-3.589507 0.0079,-1.573078 -0.03814,-2.393542 -0.137856,-2.458693 -0.08231,-0.05378 -0.236766,-0.282182 -0.343233,-0.507563 C 94.671358,81.23324 94.528238,81.144137 94.024082,81.0682 93.686972,81.01742 73.089929,80.97132 48.252873,80.965754 l -45.1582847,-0.01013 -0.4641305,0.31006 c -0.8126348,0.542875 -0.9742338,1.041867 -0.8818577,2.723037 0.1582687,2.880368 0.7468423,5.251202 1.9123679,7.703211 1.2964736,2.727495 3.3776248,5.409761 5.8254423,7.508049 0.7069387,0.605992 6.7252027,5.397249 13.3739187,10.647249 6.648715,5.25 12.826181,10.1662 13.727702,10.92489 5.432408,4.57174 8.407814,6.45225 10.995821,6.94956 0.785855,0.151 2.32379,-0.0544 3.429818,-0.45802 z"
       id="path2797"
       clip-path="url(#clipPath2892)"
       inkscape:path-effect="#path-effect2896"
       inkscape:original-d="m 1.4150598,158.73842 c -3.1672937,-0.68025 -6.1055078,-3.46488 -7.1263915,-6.75388 l -0.3179837,-1.02446 V 116.0603 81.16052 l 0.3179837,-1.024455 c 1.0315748,-3.323446 3.972515,-6.087311 7.1946886,-6.761493 1.4438474,-0.3021 92.6694561,-0.3021 94.1133031,0 3.222173,0.674182 6.16312,3.438047 7.1947,6.761493 l 0.31799,1.024455 v 34.89978 34.89978 l -0.31799,1.02446 c -1.03158,3.32344 -3.972527,6.08731 -7.1947,6.76149 -1.403877,0.29374 -92.8129095,0.28635 -94.1816002,-0.008 z M 94.44956,150.85491 c 0.255271,-0.17053 0.571602,-0.52397 0.702958,-0.78541 0.224616,-0.44708 0.238839,-1.88035 0.239039,-24.08861 l 2.12e-4,-23.61325 -0.885662,0.95659 c -1.271051,1.37286 -3.048935,2.8745 -7.241684,6.11649 -8.567384,6.62461 -14.427286,11.29043 -21.498465,17.11768 -6.210302,5.11781 -7.056876,5.7041 -10.62282,7.35688 -2.243427,1.0398 -4.750812,1.67636 -6.603128,1.67636 -1.852316,0 -4.359701,-0.63656 -6.603128,-1.67636 -3.565944,-1.65278 -4.412518,-2.23907 -10.62282,-7.35688 -7.071179,-5.82725 -12.931081,-10.49307 -21.4984687,-17.11768 -4.1927487,-3.24199 -5.9706316,-4.74363 -7.2416832,-6.11649 l -0.8856622,-0.95659 2.186e-4,23.61325 c 2.049e-4,22.20826 0.014423,23.64153 0.2390396,24.08861 0.1313551,0.26144 0.447686,0.61488 0.702958,0.78541 l 0.4641242,0.31006 H 48.54001 93.985428 Z M 51.01367,127.26366 c 2.252311,-0.82199 4.8828,-2.62364 9.478319,-6.49179 0.901521,-0.75883 7.201922,-5.76836 14.000891,-11.1323 13.230525,-10.437997 14.411713,-11.456623 16.422919,-14.162712 2.064484,-2.777775 3.323357,-5.084767 4.011158,-7.350793 0.341361,-1.124644 0.373912,-1.42835 0.384715,-3.589507 0.0079,-1.573078 -0.03814,-2.393542 -0.137856,-2.458693 -0.08231,-0.05378 -0.236766,-0.282182 -0.343233,-0.507563 C 94.671358,81.23324 94.528238,81.144137 94.024082,81.0682 93.686972,81.01742 73.089929,80.97132 48.252873,80.965754 l -45.1582847,-0.01013 -0.4641305,0.31006 c -0.8126348,0.542875 -0.9742338,1.041867 -0.8818577,2.723037 0.1582687,2.880368 0.7468423,5.251202 1.9123679,7.703211 1.2964736,2.727495 3.3776248,5.409761 5.8254423,7.508049 0.7069387,0.605992 6.7252027,5.397249 13.3739187,10.647249 6.648715,5.25 12.826181,10.1662 13.727702,10.92489 5.432408,4.57174 8.407814,6.45225 10.995821,6.94956 0.785855,0.151 2.32379,-0.0544 3.429818,-0.45802 z" />
    <g
       id="g2793"
       style="stroke:#577bcf;stroke-width:2.099;stroke-miterlimit:4;stroke-dasharray:none;stroke-opacity:1"
       transform="translate(17.462501,5.2916667)">
      <path
         style="fill:#577bcf;fill-opacity:1;stroke:#577bcf;stroke-width:2.099;stroke-miterlimit:4;stroke-dasharray:none;stroke-opacity:1"
         d="m 61.561453,96.916578 c -1.854779,-0.485899 -3.24791,-1.758544 -3.978008,-3.633968 l -0.271533,-0.697494 -0.02913,-21.827009 c -0.03222,-24.139656 -0.07322,-22.580533 0.630822,-23.989673 0.43729,-0.875242 1.580355,-2.009441 2.479156,-2.459928 1.136589,-0.569668 1.765808,-0.647552 5.247881,-0.649585 l 3.106955,-0.0018 v -3.303512 c 0,-4.622207 -0.251374,-4.34574 3.908848,-4.299049 3.945936,0.04429 3.714546,-0.229235 3.714776,4.391158 l 1.6e-4,3.21139 h 7.62379 7.62379 l 2.1e-4,-3.21139 c 2.1e-4,-3.532977 0.023,-3.676243 0.65998,-4.143886 0.27797,-0.204074 0.45203,-0.217939 3.08084,-0.245406 4.126611,-0.04312 3.88276,-0.31539 3.88276,4.335445 v 3.265237 l 3.10695,0.0018 c 3.46839,0.002 4.09874,0.07918 5.24462,0.641916 0.81006,0.39782 2.00673,1.553843 2.43367,2.351007 0.15922,0.297277 0.38245,0.903992 0.49607,1.348258 0.20256,0.791987 0.20659,1.229083 0.20659,22.392481 0,21.163398 -0.004,21.600494 -0.20659,22.392481 -0.2863,1.119402 -0.66087,1.767649 -1.51481,2.621595 -0.85395,0.853945 -1.50219,1.228515 -2.62159,1.51481 -0.79239,0.202657 -1.21938,0.206479 -22.4353,0.200839 -20.961602,-0.0056 -21.651049,-0.01191 -22.390904,-0.20573 z m 43.216377,-5.741341 c 0.20725,-0.207247 0.20887,-0.348117 0.20887,-18.11955 V 55.145007 H 83.995167 63.003643 v 17.91068 c 0,17.771433 0.0016,17.912303 0.208871,18.11955 0.207458,0.207457 0.348118,0.208871 20.782653,0.208871 20.434543,0 20.575203,-0.0014 20.782663,-0.208871 z M 69.635294,81.736373 c -0.172318,-0.07841 -0.430796,-0.269755 -0.574395,-0.425208 L 68.79981,81.028524 68.769,78.168695 c -0.03421,-3.175707 -0.01068,-3.312819 0.636386,-3.707357 0.309639,-0.188799 0.54151,-0.203892 3.137988,-0.204253 3.174413,-4.18e-4 3.247653,0.01548 3.621353,0.787458 0.18883,0.39006 0.20665,0.649571 0.20665,3.008155 0,2.870078 -0.0413,3.097438 -0.6409,3.525062 -0.34655,0.247168 -0.3874,0.250842 -3.066554,0.275842 -2.114989,0.01973 -2.784591,-0.0062 -3.028629,-0.117229 z m 11.353373,-0.07773 c -0.78372,-0.387933 -0.80539,-0.486078 -0.80539,-3.646868 0,-3.074138 0.009,-3.120263 0.71061,-3.553423 0.31447,-0.194208 0.50157,-0.204474 3.24,-0.177776 l 2.90625,0.02833 0.34843,0.380363 c 0.45325,0.494788 0.49862,0.874776 0.45372,3.799827 -0.0531,3.458234 0.0233,3.391425 -3.87534,3.391298 -2.36878,-7.7e-5 -2.55906,-0.01424 -2.97828,-0.221754 z m 11.63731,0.114455 c -0.16413,-0.04919 -0.39384,-0.174384 -0.51048,-0.27822 -0.45029,-0.400883 -0.49654,-0.721483 -0.49654,-3.442183 0,-2.358584 0.0178,-2.618095 0.20665,-3.008155 0.37371,-0.771974 0.44695,-0.7879 3.62136,-0.787458 4.042454,5.22e-4 3.819,-0.23101 3.77437,3.91161 l -0.0308,2.859829 -0.26109,0.282786 c -0.49204,0.532928 -0.72114,0.569923 -3.46912,0.560196 -1.39476,-0.0049 -2.67021,-0.04922 -2.83434,-0.0984 z M 69.5054,70.220822 c -0.18632,-0.09185 -0.433049,-0.31956 -0.548286,-0.506017 -0.196074,-0.317256 -0.209521,-0.518396 -0.209521,-3.134116 0,-4.010334 -0.199817,-3.811894 3.838342,-3.811894 2.643792,0 2.718902,0.0058 3.065062,0.237061 0.67969,0.454065 0.72006,0.654471 0.72006,3.574833 0,2.920362 -0.0404,3.120768 -0.72006,3.574833 -0.34655,0.231511 -0.41868,0.237006 -3.080846,0.234683 -2.283958,-0.002 -2.780918,-0.02946 -3.064751,-0.169383 z m 11.464697,-0.01116 c -0.19909,-0.10043 -0.45757,-0.347086 -0.5744,-0.548124 -0.19879,-0.342062 -0.21242,-0.539815 -0.21242,-3.080846 0,-3.971943 -0.16039,-3.811569 3.81189,-3.811569 2.99115,0 3.19938,0.04227 3.59947,0.730723 0.19879,0.342062 0.21242,0.539815 0.21242,3.080846 0,3.971943 0.16039,3.811569 -3.81189,3.811569 -2.32775,0 -2.70868,-0.02299 -3.02507,-0.182599 z m 11.36924,-0.05414 c -0.67969,-0.454065 -0.72006,-0.654471 -0.72006,-3.574833 0,-2.920362 0.0404,-3.120768 0.72006,-3.574833 0.34617,-0.231251 0.42128,-0.237061 3.06506,-0.237061 3.01758,0 3.23498,0.04052 3.62783,0.676167 0.19734,0.319298 0.21052,0.515615 0.21052,3.135727 0,4.010334 0.199824,3.811894 -3.83835,3.811894 -2.64378,0 -2.71889,-0.0058 -3.06506,-0.237061 z"
         id="path2795" />
    </g>
    <path
       style="fill:#6c6c6c;fill-opacity:1;stroke:#acacac;stroke-width:6;stroke-miterlimit:4;stroke-dasharray:none;stroke-opacity:1"
       d="m 71.128206,68.210341 c 0.389425,0.630101 5.946435,3.743594 9.366488,5.247873 4.855136,2.135488 10.635612,3.70461 15.225299,4.132949 1.162981,0.108533 2.147782,0.230612 2.188445,0.271275 0.04063,0.04063 -1.692406,1.507253 -3.851267,3.259092 -7.271128,5.900243 -13.221945,11.294089 -13.221945,11.984426 0,0.982273 6.096183,-4.137904 15.384002,-12.921001 l 2.818083,-2.664948 -2.205108,-0.434455 C 92.674566,76.266386 88.164142,74.773286 82.980627,72.500219 77.92645,70.28386 71.950289,68.008659 71.182858,68.008659 c -0.09861,0 -0.123207,0.09076 -0.05465,0.201682 z m 9.896726,12.983345 C 68.521313,83.142974 57.246874,91.48992 51.40251,103.12441 c -1.401115,2.78924 -2.648762,6.37225 -2.800119,8.04145 -0.05891,0.6496 -0.05248,1.18109 0.01428,1.18109 0.06676,0 1.009687,-1.75051 2.095401,-3.89003 3.150746,-6.2089 6.287757,-10.562647 10.479628,-14.544321 5.863724,-5.569692 12.503498,-9.16317 21.471851,-11.620686 4.081825,-1.118496 3.791641,-1.015695 3.460014,-1.225726 -0.405858,-0.257051 -3.057265,-0.190744 -5.098631,0.127499 z"
       id="path2799"
       sodipodi:nodetypes="ssssssscsssssssssssssss" />
  </g>
</svg>
